PathFileType	4	(X/Y/Z)	SUBJ11_2_walk_RCNL2025.trc
DataRate	CameraRate	NumFrames	NumMarkers	Units	OrigDataRate	OrigDataStartFrame	OrigNumFrames
100	100	5	25	mm	100	1	478
Frame#	Time	R_Shoulder			L_Shoulder			C7			J_Notch			R_Elbow			L_Elbow			R_Wrist			L_Wrist			R_Asis			L_Asis			Sacral			Thoracic			Sternum			R_Thigh_Lateral			R_Knee_Lateral			R_Shank_Lateral			R_Ankle_Lateral			R_Heel			R_Toe			L_Thigh_Lateral			L_Knee_Lateral			L_Shank_Lateral			L_Ankle_Lateral			L_Heel			L_Toe		
		X1	Y1	Z1	X2	Y2	Z2	X3	Y3	Z3	X4	Y4	Z4	X5	Y5	Z5	X6	Y6	Z6	X7	Y7	Z7	X8	Y8	Z8	X9	Y9	Z9	X10	Y10	Z10	X11	Y11	Z11	X12	Y12	Z12	X13	Y13	Z13	X14	Y14	Z14	X15	Y15	Z15	X16	Y16	Z16	X17	Y17	Z17	X18	Y18	Z18	X19	Y19	Z19	X20	Y20	Z20	X21	Y21	Z21	X22	Y22	Z22	X23	Y23	Z23	X24	Y24	Z24	X25	Y25	Z25
1	0.00000000	-2284.602295	1439.154419	108.790398	-2293.415771	1430.880615	-286.544067	-2332.583740	1479.244995	-84.222481	-2186.360107	1373.526733	-80.640282	-2283.409668	1108.681519	229.245193	-2402.132080	1102.927490	-362.086761	-2137.602661	890.888641	218.549393	-2388.466797	837.653412	-344.805923	-2233.356201	960.054932	82.882286	-2217.987305	952.400146	-213.722824	-2401.122070	978.381409	-83.946625	-2412.631592	1300.808350	-84.840073	-2131.064453	1173.248291	-76.244385	-2351.568359	615.026062	112.214470	-2374.612793	466.704773	38.981052	-2422.281006	261.882843	70.136299	-2473.473633	68.917603	-3.843924	-2534.815186	58.787708	-50.329178	-2339.377930	47.305332	-43.905479	-2199.249512	618.105286	-293.922607	-2137.586670	479.270142	-212.769791	-2110.097656	271.304199	-249.788300	-2080.093018	78.986031	-182.698166	-2129.941406	59.934853	-127.838501	-1945.118042	80.513840	-154.849091
2	0.01000000	-2272.903076	1437.418579	106.588364	-2283.163818	1427.854248	-286.321655	-2322.008301	1476.911621	-85.236488	-2175.962891	1370.775024	-81.595726	-2269.896973	1107.856323	228.275299	-2393.238037	1100.296631	-360.639435	-2123.895752	891.104401	218.713173	-2382.133057	834.928284	-343.825516	-2223.699951	958.422424	82.758133	-2206.641602	949.461609	-213.797119	-2390.772705	975.793396	-84.977501	-2402.452881	1298.745972	-85.447357	-2120.560303	1170.566650	-76.452034	-2344.591797	613.988098	112.510483	-2368.824219	465.707397	39.177349	-2419.372070	261.353394	70.118622	-2473.170410	69.190590	-4.092152	-2534.591309	59.711971	-50.553455	-2339.319580	47.244301	-43.892673	-2193.461914	612.507874	-292.528107	-2126.750977	476.319977	-210.907074	-2089.698730	269.784393	-248.570969	-2049.768311	78.614937	-181.908600	-2098.767822	57.045383	-127.104477	-1914.655884	86.250595	-153.890152
3	0.02000000	-2261.070312	1435.604370	104.852089	-2272.880859	1424.805786	-286.663940	-2311.379150	1474.520508	-86.276489	-2165.465088	1368.052979	-82.646187	-2256.854248	1106.987793	228.001785	-2384.026367	1097.540283	-360.046021	-2109.935059	891.240906	219.179871	-2375.404907	832.139893	-343.266495	-2213.987061	956.688721	82.605560	-2195.313477	946.491943	-213.893326	-2380.405762	973.167236	-86.091621	-2392.143311	1296.586548	-86.041206	-2109.961670	1167.812012	-76.752640	-2337.391602	612.853149	112.750816	-2362.723389	464.610260	39.329403	-2416.239746	260.783752	70.018723	-2472.856201	69.534355	-4.403949	-2534.340820	60.754566	-50.844326	-2339.238770	47.179447	-43.903763	-2187.907715	606.644043	-291.080414	-2115.659424	473.583313	-209.056244	-2069.959717	268.714172	-247.369675	-2021.220459	78.870827	-181.052200	-2069.456787	55.171074	-126.428467	-1886.182983	91.932571	-152.985718
4	0.03000000	-2249.174316	1433.742676	103.440430	-2262.564697	1421.751099	-287.439636	-2300.691406	1472.096313	-87.361595	-2154.856689	1365.403076	-83.794373	-2244.251953	1106.079956	228.211136	-2374.497314	1094.676392	-360.097595	-2095.975342	891.291870	219.839584	-2368.278442	829.309265	-343.044876	-2204.238281	954.879028	82.436890	-2184.047119	943.529785	-214.018875	-2370.004639	970.546387	-87.259308	-2381.686035	1294.363770	-86.628632	-2099.350342	1165.037354	-77.167603	-2329.952393	611.643799	112.924660	-2356.372803	463.455475	39.443588	-2412.920166	260.216675	69.851097	-2472.522217	69.975121	-4.761577	-2534.060303	61.942295	-51.186420	-2339.135254	47.116024	-43.935513	-2182.250244	600.713135	-289.606110	-2104.196045	471.129944	-207.310165	-2050.972900	267.982727	-246.189514	-1994.758179	79.521416	-180.089783	-2042.356689	54.099503	-125.732994	-1859.923950	97.193314	-152.023453
5	0.04000000	-2237.274658	1431.871826	102.220619	-2252.205566	1418.705811	-288.529419	-2289.942383	1469.670288	-88.513618	-2144.130371	1362.861084	-85.033859	-2232.035156	1105.139648	228.695679	-2364.644775	1091.725952	-360.597168	-2082.221436	891.250671	220.594337	-2360.749390	826.455414	-343.079773	-2194.446777	953.021179	82.256935	-2172.855957	940.607605	-214.180862	-2359.541016	967.981140	-88.444847	-2371.070801	1292.117065	-87.223396	-2088.763184	1162.297363	-77.718033	-2322.266846	610.392395	113.029053	-2349.832520	462.292877	39.533859	-2409.450439	259.704315	69.642479	-2472.159180	70.546967	-5.133379	-2533.743896	63.307957	-51.549614	-2339.007080	47.059555	-43.981354	-2176.104004	594.977173	-288.153687	-2092.294922	468.991425	-205.751144	-2032.860596	267.443542	-245.026901	-1970.660889	80.314514	-178.995193	-2017.758423	53.561413	-124.915108	-1836.075684	101.668854	-150.882263
